<mxfile host="app.diagrams.net" agent="Mozilla/5.0 (Windows NT 10.0; Win64; x64) AppleWebKit/537.36 (KHTML, like Gecko) Chrome/135.0.0.0 Safari/537.36" version="26.0.6">
  <diagram name="StrÃ¡nka-1" id="Xw-xB11iTE9mDNudlZPM">
    <mxGraphModel dx="5923" dy="1930" grid="1" gridSize="10" guides="1" tooltips="1" connect="1" arrows="1" fold="1" page="1" pageScale="1" pageWidth="1169" pageHeight="827" math="0" shadow="0">
      <root>
        <mxCell id="0" />
        <mxCell id="1" parent="0" />
        <mxCell id="Ov64XI55rNk1e-eB7lrl-1" value="advertisement" style="shape=table;startSize=30;container=1;collapsible=1;childLayout=tableLayout;fixedRows=1;rowLines=0;fontStyle=1;align=center;resizeLast=1;" vertex="1" parent="1">
          <mxGeometry x="-1080" y="119" width="490" height="360" as="geometry">
            <mxRectangle x="-400" y="119" width="120" height="30" as="alternateBounds" />
          </mxGeometry>
        </mxCell>
        <mxCell id="Ov64XI55rNk1e-eB7lrl-2" value="" style="shape=tableRow;horizontal=0;startSize=0;swimlaneHead=0;swimlaneBody=0;fillColor=none;collapsible=0;dropTarget=0;points=[[0,0.5],[1,0.5]];portConstraint=eastwest;strokeColor=inherit;top=0;left=0;right=0;bottom=1;" vertex="1" parent="Ov64XI55rNk1e-eB7lrl-1">
          <mxGeometry y="30" width="490" height="30" as="geometry" />
        </mxCell>
        <mxCell id="Ov64XI55rNk1e-eB7lrl-3" value="PK" style="shape=partialRectangle;overflow=hidden;connectable=0;fillColor=none;strokeColor=inherit;top=0;left=0;bottom=0;right=0;fontStyle=1;" vertex="1" parent="Ov64XI55rNk1e-eB7lrl-2">
          <mxGeometry width="30" height="30" as="geometry">
            <mxRectangle width="30" height="30" as="alternateBounds" />
          </mxGeometry>
        </mxCell>
        <mxCell id="Ov64XI55rNk1e-eB7lrl-4" value="id INT AUTO_INCREMENT " style="shape=partialRectangle;overflow=hidden;connectable=0;fillColor=none;align=left;strokeColor=inherit;top=0;left=0;bottom=0;right=0;spacingLeft=6;fontStyle=5;" vertex="1" parent="Ov64XI55rNk1e-eB7lrl-2">
          <mxGeometry x="30" width="460" height="30" as="geometry">
            <mxRectangle width="460" height="30" as="alternateBounds" />
          </mxGeometry>
        </mxCell>
        <mxCell id="Ov64XI55rNk1e-eB7lrl-5" value="" style="shape=tableRow;horizontal=0;startSize=0;swimlaneHead=0;swimlaneBody=0;fillColor=none;collapsible=0;dropTarget=0;points=[[0,0.5],[1,0.5]];portConstraint=eastwest;strokeColor=inherit;top=0;left=0;right=0;bottom=0;" vertex="1" parent="Ov64XI55rNk1e-eB7lrl-1">
          <mxGeometry y="60" width="490" height="30" as="geometry" />
        </mxCell>
        <mxCell id="Ov64XI55rNk1e-eB7lrl-6" value="" style="shape=partialRectangle;overflow=hidden;connectable=0;fillColor=none;strokeColor=inherit;top=0;left=0;bottom=0;right=0;" vertex="1" parent="Ov64XI55rNk1e-eB7lrl-5">
          <mxGeometry width="30" height="30" as="geometry">
            <mxRectangle width="30" height="30" as="alternateBounds" />
          </mxGeometry>
        </mxCell>
        <mxCell id="Ov64XI55rNk1e-eB7lrl-7" value="user_id INT NOT NULL" style="shape=partialRectangle;overflow=hidden;connectable=0;fillColor=none;align=left;strokeColor=inherit;top=0;left=0;bottom=0;right=0;spacingLeft=6;" vertex="1" parent="Ov64XI55rNk1e-eB7lrl-5">
          <mxGeometry x="30" width="460" height="30" as="geometry">
            <mxRectangle width="460" height="30" as="alternateBounds" />
          </mxGeometry>
        </mxCell>
        <mxCell id="Ov64XI55rNk1e-eB7lrl-8" value="" style="shape=tableRow;horizontal=0;startSize=0;swimlaneHead=0;swimlaneBody=0;fillColor=none;collapsible=0;dropTarget=0;points=[[0,0.5],[1,0.5]];portConstraint=eastwest;strokeColor=inherit;top=0;left=0;right=0;bottom=0;" vertex="1" parent="Ov64XI55rNk1e-eB7lrl-1">
          <mxGeometry y="90" width="490" height="30" as="geometry" />
        </mxCell>
        <mxCell id="Ov64XI55rNk1e-eB7lrl-9" value="" style="shape=partialRectangle;overflow=hidden;connectable=0;fillColor=none;strokeColor=inherit;top=0;left=0;bottom=0;right=0;" vertex="1" parent="Ov64XI55rNk1e-eB7lrl-8">
          <mxGeometry width="30" height="30" as="geometry">
            <mxRectangle width="30" height="30" as="alternateBounds" />
          </mxGeometry>
        </mxCell>
        <mxCell id="Ov64XI55rNk1e-eB7lrl-10" value="category_id INT NULL" style="shape=partialRectangle;overflow=hidden;connectable=0;fillColor=none;align=left;strokeColor=inherit;top=0;left=0;bottom=0;right=0;spacingLeft=6;" vertex="1" parent="Ov64XI55rNk1e-eB7lrl-8">
          <mxGeometry x="30" width="460" height="30" as="geometry">
            <mxRectangle width="460" height="30" as="alternateBounds" />
          </mxGeometry>
        </mxCell>
        <mxCell id="Ov64XI55rNk1e-eB7lrl-11" value="" style="shape=tableRow;horizontal=0;startSize=0;swimlaneHead=0;swimlaneBody=0;fillColor=none;collapsible=0;dropTarget=0;points=[[0,0.5],[1,0.5]];portConstraint=eastwest;strokeColor=inherit;top=0;left=0;right=0;bottom=0;" vertex="1" parent="Ov64XI55rNk1e-eB7lrl-1">
          <mxGeometry y="120" width="490" height="30" as="geometry" />
        </mxCell>
        <mxCell id="Ov64XI55rNk1e-eB7lrl-12" value="" style="shape=partialRectangle;overflow=hidden;connectable=0;fillColor=none;strokeColor=inherit;top=0;left=0;bottom=0;right=0;" vertex="1" parent="Ov64XI55rNk1e-eB7lrl-11">
          <mxGeometry width="30" height="30" as="geometry">
            <mxRectangle width="30" height="30" as="alternateBounds" />
          </mxGeometry>
        </mxCell>
        <mxCell id="Ov64XI55rNk1e-eB7lrl-13" value="title VARCHAR(255) NOT NULL" style="shape=partialRectangle;overflow=hidden;connectable=0;fillColor=none;align=left;strokeColor=inherit;top=0;left=0;bottom=0;right=0;spacingLeft=6;" vertex="1" parent="Ov64XI55rNk1e-eB7lrl-11">
          <mxGeometry x="30" width="460" height="30" as="geometry">
            <mxRectangle width="460" height="30" as="alternateBounds" />
          </mxGeometry>
        </mxCell>
        <mxCell id="Ov64XI55rNk1e-eB7lrl-14" value="" style="shape=tableRow;horizontal=0;startSize=0;swimlaneHead=0;swimlaneBody=0;fillColor=none;collapsible=0;dropTarget=0;points=[[0,0.5],[1,0.5]];portConstraint=eastwest;strokeColor=inherit;top=0;left=0;right=0;bottom=0;" vertex="1" parent="Ov64XI55rNk1e-eB7lrl-1">
          <mxGeometry y="150" width="490" height="30" as="geometry" />
        </mxCell>
        <mxCell id="Ov64XI55rNk1e-eB7lrl-15" value="" style="shape=partialRectangle;overflow=hidden;connectable=0;fillColor=none;strokeColor=inherit;top=0;left=0;bottom=0;right=0;" vertex="1" parent="Ov64XI55rNk1e-eB7lrl-14">
          <mxGeometry width="30" height="30" as="geometry">
            <mxRectangle width="30" height="30" as="alternateBounds" />
          </mxGeometry>
        </mxCell>
        <mxCell id="Ov64XI55rNk1e-eB7lrl-16" value="description TEXT" style="shape=partialRectangle;overflow=hidden;connectable=0;fillColor=none;align=left;strokeColor=inherit;top=0;left=0;bottom=0;right=0;spacingLeft=6;" vertex="1" parent="Ov64XI55rNk1e-eB7lrl-14">
          <mxGeometry x="30" width="460" height="30" as="geometry">
            <mxRectangle width="460" height="30" as="alternateBounds" />
          </mxGeometry>
        </mxCell>
        <mxCell id="Ov64XI55rNk1e-eB7lrl-17" value="" style="shape=tableRow;horizontal=0;startSize=0;swimlaneHead=0;swimlaneBody=0;fillColor=none;collapsible=0;dropTarget=0;points=[[0,0.5],[1,0.5]];portConstraint=eastwest;strokeColor=inherit;top=0;left=0;right=0;bottom=0;" vertex="1" parent="Ov64XI55rNk1e-eB7lrl-1">
          <mxGeometry y="180" width="490" height="30" as="geometry" />
        </mxCell>
        <mxCell id="Ov64XI55rNk1e-eB7lrl-18" value="" style="shape=partialRectangle;overflow=hidden;connectable=0;fillColor=none;strokeColor=inherit;top=0;left=0;bottom=0;right=0;" vertex="1" parent="Ov64XI55rNk1e-eB7lrl-17">
          <mxGeometry width="30" height="30" as="geometry">
            <mxRectangle width="30" height="30" as="alternateBounds" />
          </mxGeometry>
        </mxCell>
        <mxCell id="Ov64XI55rNk1e-eB7lrl-19" value="price DECIMAL(10,2) NOT NULL" style="shape=partialRectangle;overflow=hidden;connectable=0;fillColor=none;align=left;strokeColor=inherit;top=0;left=0;bottom=0;right=0;spacingLeft=6;" vertex="1" parent="Ov64XI55rNk1e-eB7lrl-17">
          <mxGeometry x="30" width="460" height="30" as="geometry">
            <mxRectangle width="460" height="30" as="alternateBounds" />
          </mxGeometry>
        </mxCell>
        <mxCell id="Ov64XI55rNk1e-eB7lrl-20" value="" style="shape=tableRow;horizontal=0;startSize=0;swimlaneHead=0;swimlaneBody=0;fillColor=none;collapsible=0;dropTarget=0;points=[[0,0.5],[1,0.5]];portConstraint=eastwest;strokeColor=inherit;top=0;left=0;right=0;bottom=0;" vertex="1" parent="Ov64XI55rNk1e-eB7lrl-1">
          <mxGeometry y="210" width="490" height="30" as="geometry" />
        </mxCell>
        <mxCell id="Ov64XI55rNk1e-eB7lrl-21" value="" style="shape=partialRectangle;overflow=hidden;connectable=0;fillColor=none;strokeColor=inherit;top=0;left=0;bottom=0;right=0;" vertex="1" parent="Ov64XI55rNk1e-eB7lrl-20">
          <mxGeometry width="30" height="30" as="geometry">
            <mxRectangle width="30" height="30" as="alternateBounds" />
          </mxGeometry>
        </mxCell>
        <mxCell id="Ov64XI55rNk1e-eB7lrl-22" value="location VARCHAR(100)" style="shape=partialRectangle;overflow=hidden;connectable=0;fillColor=none;align=left;strokeColor=inherit;top=0;left=0;bottom=0;right=0;spacingLeft=6;" vertex="1" parent="Ov64XI55rNk1e-eB7lrl-20">
          <mxGeometry x="30" width="460" height="30" as="geometry">
            <mxRectangle width="460" height="30" as="alternateBounds" />
          </mxGeometry>
        </mxCell>
        <mxCell id="Ov64XI55rNk1e-eB7lrl-23" value="" style="shape=tableRow;horizontal=0;startSize=0;swimlaneHead=0;swimlaneBody=0;fillColor=none;collapsible=0;dropTarget=0;points=[[0,0.5],[1,0.5]];portConstraint=eastwest;strokeColor=inherit;top=0;left=0;right=0;bottom=0;" vertex="1" parent="Ov64XI55rNk1e-eB7lrl-1">
          <mxGeometry y="240" width="490" height="30" as="geometry" />
        </mxCell>
        <mxCell id="Ov64XI55rNk1e-eB7lrl-24" value="" style="shape=partialRectangle;overflow=hidden;connectable=0;fillColor=none;strokeColor=inherit;top=0;left=0;bottom=0;right=0;" vertex="1" parent="Ov64XI55rNk1e-eB7lrl-23">
          <mxGeometry width="30" height="30" as="geometry">
            <mxRectangle width="30" height="30" as="alternateBounds" />
          </mxGeometry>
        </mxCell>
        <mxCell id="Ov64XI55rNk1e-eB7lrl-25" value="status ENUM(&#39;active&#39;, &#39;inactive&#39;) DEFAULT &#39;active&#39;" style="shape=partialRectangle;overflow=hidden;connectable=0;fillColor=none;align=left;strokeColor=inherit;top=0;left=0;bottom=0;right=0;spacingLeft=6;" vertex="1" parent="Ov64XI55rNk1e-eB7lrl-23">
          <mxGeometry x="30" width="460" height="30" as="geometry">
            <mxRectangle width="460" height="30" as="alternateBounds" />
          </mxGeometry>
        </mxCell>
        <mxCell id="Ov64XI55rNk1e-eB7lrl-26" value="" style="shape=tableRow;horizontal=0;startSize=0;swimlaneHead=0;swimlaneBody=0;fillColor=none;collapsible=0;dropTarget=0;points=[[0,0.5],[1,0.5]];portConstraint=eastwest;strokeColor=inherit;top=0;left=0;right=0;bottom=0;" vertex="1" parent="Ov64XI55rNk1e-eB7lrl-1">
          <mxGeometry y="270" width="490" height="30" as="geometry" />
        </mxCell>
        <mxCell id="Ov64XI55rNk1e-eB7lrl-27" value="" style="shape=partialRectangle;overflow=hidden;connectable=0;fillColor=none;strokeColor=inherit;top=0;left=0;bottom=0;right=0;" vertex="1" parent="Ov64XI55rNk1e-eB7lrl-26">
          <mxGeometry width="30" height="30" as="geometry">
            <mxRectangle width="30" height="30" as="alternateBounds" />
          </mxGeometry>
        </mxCell>
        <mxCell id="Ov64XI55rNk1e-eB7lrl-28" value="created_at TIMESTAMP DEFAULT CURRENT_TIMESTAMP" style="shape=partialRectangle;overflow=hidden;connectable=0;fillColor=none;align=left;strokeColor=inherit;top=0;left=0;bottom=0;right=0;spacingLeft=6;" vertex="1" parent="Ov64XI55rNk1e-eB7lrl-26">
          <mxGeometry x="30" width="460" height="30" as="geometry">
            <mxRectangle width="460" height="30" as="alternateBounds" />
          </mxGeometry>
        </mxCell>
        <mxCell id="Ov64XI55rNk1e-eB7lrl-29" value="" style="shape=tableRow;horizontal=0;startSize=0;swimlaneHead=0;swimlaneBody=0;fillColor=none;collapsible=0;dropTarget=0;points=[[0,0.5],[1,0.5]];portConstraint=eastwest;strokeColor=inherit;top=0;left=0;right=0;bottom=0;" vertex="1" parent="Ov64XI55rNk1e-eB7lrl-1">
          <mxGeometry y="300" width="490" height="30" as="geometry" />
        </mxCell>
        <mxCell id="Ov64XI55rNk1e-eB7lrl-30" value="" style="shape=partialRectangle;overflow=hidden;connectable=0;fillColor=none;strokeColor=inherit;top=0;left=0;bottom=0;right=0;" vertex="1" parent="Ov64XI55rNk1e-eB7lrl-29">
          <mxGeometry width="30" height="30" as="geometry">
            <mxRectangle width="30" height="30" as="alternateBounds" />
          </mxGeometry>
        </mxCell>
        <mxCell id="Ov64XI55rNk1e-eB7lrl-31" value="FOREIGN KEY (user_id) REFERENCES users(id) ON DELETE CASCADE" style="shape=partialRectangle;overflow=hidden;connectable=0;fillColor=none;align=left;strokeColor=inherit;top=0;left=0;bottom=0;right=0;spacingLeft=6;" vertex="1" parent="Ov64XI55rNk1e-eB7lrl-29">
          <mxGeometry x="30" width="460" height="30" as="geometry">
            <mxRectangle width="460" height="30" as="alternateBounds" />
          </mxGeometry>
        </mxCell>
        <mxCell id="Ov64XI55rNk1e-eB7lrl-32" value="" style="shape=tableRow;horizontal=0;startSize=0;swimlaneHead=0;swimlaneBody=0;fillColor=none;collapsible=0;dropTarget=0;points=[[0,0.5],[1,0.5]];portConstraint=eastwest;strokeColor=inherit;top=0;left=0;right=0;bottom=0;" vertex="1" parent="Ov64XI55rNk1e-eB7lrl-1">
          <mxGeometry y="330" width="490" height="30" as="geometry" />
        </mxCell>
        <mxCell id="Ov64XI55rNk1e-eB7lrl-33" value="" style="shape=partialRectangle;overflow=hidden;connectable=0;fillColor=none;strokeColor=inherit;top=0;left=0;bottom=0;right=0;" vertex="1" parent="Ov64XI55rNk1e-eB7lrl-32">
          <mxGeometry width="30" height="30" as="geometry">
            <mxRectangle width="30" height="30" as="alternateBounds" />
          </mxGeometry>
        </mxCell>
        <mxCell id="Ov64XI55rNk1e-eB7lrl-34" value="FOREIGN KEY (category_id) REFERENCES category(id) ON DELETE SET NULL" style="shape=partialRectangle;overflow=hidden;connectable=0;fillColor=none;align=left;strokeColor=inherit;top=0;left=0;bottom=0;right=0;spacingLeft=6;" vertex="1" parent="Ov64XI55rNk1e-eB7lrl-32">
          <mxGeometry x="30" width="460" height="30" as="geometry">
            <mxRectangle width="460" height="30" as="alternateBounds" />
          </mxGeometry>
        </mxCell>
        <mxCell id="Ov64XI55rNk1e-eB7lrl-35" value="category" style="shape=table;startSize=30;container=1;collapsible=1;childLayout=tableLayout;fixedRows=1;rowLines=0;fontStyle=1;align=center;resizeLast=1;" vertex="1" parent="1">
          <mxGeometry x="-510" y="349" width="290" height="90" as="geometry" />
        </mxCell>
        <mxCell id="Ov64XI55rNk1e-eB7lrl-36" value="" style="shape=tableRow;horizontal=0;startSize=0;swimlaneHead=0;swimlaneBody=0;fillColor=none;collapsible=0;dropTarget=0;points=[[0,0.5],[1,0.5]];portConstraint=eastwest;strokeColor=inherit;top=0;left=0;right=0;bottom=1;" vertex="1" parent="Ov64XI55rNk1e-eB7lrl-35">
          <mxGeometry y="30" width="290" height="30" as="geometry" />
        </mxCell>
        <mxCell id="Ov64XI55rNk1e-eB7lrl-37" value="PK" style="shape=partialRectangle;overflow=hidden;connectable=0;fillColor=none;strokeColor=inherit;top=0;left=0;bottom=0;right=0;fontStyle=1;" vertex="1" parent="Ov64XI55rNk1e-eB7lrl-36">
          <mxGeometry width="30" height="30" as="geometry">
            <mxRectangle width="30" height="30" as="alternateBounds" />
          </mxGeometry>
        </mxCell>
        <mxCell id="Ov64XI55rNk1e-eB7lrl-38" value="id INT AUTO_INCREMENT " style="shape=partialRectangle;overflow=hidden;connectable=0;fillColor=none;align=left;strokeColor=inherit;top=0;left=0;bottom=0;right=0;spacingLeft=6;fontStyle=5;" vertex="1" parent="Ov64XI55rNk1e-eB7lrl-36">
          <mxGeometry x="30" width="260" height="30" as="geometry">
            <mxRectangle width="260" height="30" as="alternateBounds" />
          </mxGeometry>
        </mxCell>
        <mxCell id="Ov64XI55rNk1e-eB7lrl-39" value="" style="shape=tableRow;horizontal=0;startSize=0;swimlaneHead=0;swimlaneBody=0;fillColor=none;collapsible=0;dropTarget=0;points=[[0,0.5],[1,0.5]];portConstraint=eastwest;strokeColor=inherit;top=0;left=0;right=0;bottom=0;" vertex="1" parent="Ov64XI55rNk1e-eB7lrl-35">
          <mxGeometry y="60" width="290" height="30" as="geometry" />
        </mxCell>
        <mxCell id="Ov64XI55rNk1e-eB7lrl-40" value="" style="shape=partialRectangle;overflow=hidden;connectable=0;fillColor=none;strokeColor=inherit;top=0;left=0;bottom=0;right=0;" vertex="1" parent="Ov64XI55rNk1e-eB7lrl-39">
          <mxGeometry width="30" height="30" as="geometry">
            <mxRectangle width="30" height="30" as="alternateBounds" />
          </mxGeometry>
        </mxCell>
        <mxCell id="Ov64XI55rNk1e-eB7lrl-41" value="name VARCHAR(100) NOT NULL UNIQUE" style="shape=partialRectangle;overflow=hidden;connectable=0;fillColor=none;align=left;strokeColor=inherit;top=0;left=0;bottom=0;right=0;spacingLeft=6;" vertex="1" parent="Ov64XI55rNk1e-eB7lrl-39">
          <mxGeometry x="30" width="260" height="30" as="geometry">
            <mxRectangle width="260" height="30" as="alternateBounds" />
          </mxGeometry>
        </mxCell>
        <mxCell id="Ov64XI55rNk1e-eB7lrl-42" value="favorite" style="shape=table;startSize=30;container=1;collapsible=1;childLayout=tableLayout;fixedRows=1;rowLines=0;fontStyle=1;align=center;resizeLast=1;" vertex="1" parent="1">
          <mxGeometry x="-1735" y="529" width="550" height="180" as="geometry" />
        </mxCell>
        <mxCell id="Ov64XI55rNk1e-eB7lrl-43" value="" style="shape=tableRow;horizontal=0;startSize=0;swimlaneHead=0;swimlaneBody=0;fillColor=none;collapsible=0;dropTarget=0;points=[[0,0.5],[1,0.5]];portConstraint=eastwest;strokeColor=inherit;top=0;left=0;right=0;bottom=0;" vertex="1" parent="Ov64XI55rNk1e-eB7lrl-42">
          <mxGeometry y="30" width="550" height="30" as="geometry" />
        </mxCell>
        <mxCell id="Ov64XI55rNk1e-eB7lrl-44" value="" style="shape=partialRectangle;overflow=hidden;connectable=0;fillColor=none;strokeColor=inherit;top=0;left=0;bottom=0;right=0;" vertex="1" parent="Ov64XI55rNk1e-eB7lrl-43">
          <mxGeometry width="30" height="30" as="geometry">
            <mxRectangle width="30" height="30" as="alternateBounds" />
          </mxGeometry>
        </mxCell>
        <mxCell id="Ov64XI55rNk1e-eB7lrl-45" value="user_id INT NOT NULL" style="shape=partialRectangle;overflow=hidden;connectable=0;fillColor=none;align=left;strokeColor=inherit;top=0;left=0;bottom=0;right=0;spacingLeft=6;" vertex="1" parent="Ov64XI55rNk1e-eB7lrl-43">
          <mxGeometry x="30" width="520" height="30" as="geometry">
            <mxRectangle width="520" height="30" as="alternateBounds" />
          </mxGeometry>
        </mxCell>
        <mxCell id="Ov64XI55rNk1e-eB7lrl-46" value="" style="shape=tableRow;horizontal=0;startSize=0;swimlaneHead=0;swimlaneBody=0;fillColor=none;collapsible=0;dropTarget=0;points=[[0,0.5],[1,0.5]];portConstraint=eastwest;strokeColor=inherit;top=0;left=0;right=0;bottom=0;" vertex="1" parent="Ov64XI55rNk1e-eB7lrl-42">
          <mxGeometry y="60" width="550" height="30" as="geometry" />
        </mxCell>
        <mxCell id="Ov64XI55rNk1e-eB7lrl-47" value="" style="shape=partialRectangle;overflow=hidden;connectable=0;fillColor=none;strokeColor=inherit;top=0;left=0;bottom=0;right=0;" vertex="1" parent="Ov64XI55rNk1e-eB7lrl-46">
          <mxGeometry width="30" height="30" as="geometry">
            <mxRectangle width="30" height="30" as="alternateBounds" />
          </mxGeometry>
        </mxCell>
        <mxCell id="Ov64XI55rNk1e-eB7lrl-48" value="advertisement_id INT NOT NULL" style="shape=partialRectangle;overflow=hidden;connectable=0;fillColor=none;align=left;strokeColor=inherit;top=0;left=0;bottom=0;right=0;spacingLeft=6;" vertex="1" parent="Ov64XI55rNk1e-eB7lrl-46">
          <mxGeometry x="30" width="520" height="30" as="geometry">
            <mxRectangle width="520" height="30" as="alternateBounds" />
          </mxGeometry>
        </mxCell>
        <mxCell id="Ov64XI55rNk1e-eB7lrl-49" value="" style="shape=tableRow;horizontal=0;startSize=0;swimlaneHead=0;swimlaneBody=0;fillColor=none;collapsible=0;dropTarget=0;points=[[0,0.5],[1,0.5]];portConstraint=eastwest;strokeColor=inherit;top=0;left=0;right=0;bottom=0;" vertex="1" parent="Ov64XI55rNk1e-eB7lrl-42">
          <mxGeometry y="90" width="550" height="30" as="geometry" />
        </mxCell>
        <mxCell id="Ov64XI55rNk1e-eB7lrl-50" value="" style="shape=partialRectangle;overflow=hidden;connectable=0;fillColor=none;strokeColor=inherit;top=0;left=0;bottom=0;right=0;" vertex="1" parent="Ov64XI55rNk1e-eB7lrl-49">
          <mxGeometry width="30" height="30" as="geometry">
            <mxRectangle width="30" height="30" as="alternateBounds" />
          </mxGeometry>
        </mxCell>
        <mxCell id="Ov64XI55rNk1e-eB7lrl-51" value="added_at TIMESTAMP DEFAULT CURRENT_TIMESTAMP" style="shape=partialRectangle;overflow=hidden;connectable=0;fillColor=none;align=left;strokeColor=inherit;top=0;left=0;bottom=0;right=0;spacingLeft=6;" vertex="1" parent="Ov64XI55rNk1e-eB7lrl-49">
          <mxGeometry x="30" width="520" height="30" as="geometry">
            <mxRectangle width="520" height="30" as="alternateBounds" />
          </mxGeometry>
        </mxCell>
        <mxCell id="Ov64XI55rNk1e-eB7lrl-52" value="" style="shape=tableRow;horizontal=0;startSize=0;swimlaneHead=0;swimlaneBody=0;fillColor=none;collapsible=0;dropTarget=0;points=[[0,0.5],[1,0.5]];portConstraint=eastwest;strokeColor=inherit;top=0;left=0;right=0;bottom=0;" vertex="1" parent="Ov64XI55rNk1e-eB7lrl-42">
          <mxGeometry y="120" width="550" height="30" as="geometry" />
        </mxCell>
        <mxCell id="Ov64XI55rNk1e-eB7lrl-53" value="" style="shape=partialRectangle;overflow=hidden;connectable=0;fillColor=none;strokeColor=inherit;top=0;left=0;bottom=0;right=0;" vertex="1" parent="Ov64XI55rNk1e-eB7lrl-52">
          <mxGeometry width="30" height="30" as="geometry">
            <mxRectangle width="30" height="30" as="alternateBounds" />
          </mxGeometry>
        </mxCell>
        <mxCell id="Ov64XI55rNk1e-eB7lrl-54" value="FOREIGN KEY (user_id) REFERENCES users(id) ON DELETE CASCADE" style="shape=partialRectangle;overflow=hidden;connectable=0;fillColor=none;align=left;strokeColor=inherit;top=0;left=0;bottom=0;right=0;spacingLeft=6;" vertex="1" parent="Ov64XI55rNk1e-eB7lrl-52">
          <mxGeometry x="30" width="520" height="30" as="geometry">
            <mxRectangle width="520" height="30" as="alternateBounds" />
          </mxGeometry>
        </mxCell>
        <mxCell id="Ov64XI55rNk1e-eB7lrl-55" value="" style="shape=tableRow;horizontal=0;startSize=0;swimlaneHead=0;swimlaneBody=0;fillColor=none;collapsible=0;dropTarget=0;points=[[0,0.5],[1,0.5]];portConstraint=eastwest;strokeColor=inherit;top=0;left=0;right=0;bottom=0;" vertex="1" parent="Ov64XI55rNk1e-eB7lrl-42">
          <mxGeometry y="150" width="550" height="30" as="geometry" />
        </mxCell>
        <mxCell id="Ov64XI55rNk1e-eB7lrl-56" value="" style="shape=partialRectangle;overflow=hidden;connectable=0;fillColor=none;strokeColor=inherit;top=0;left=0;bottom=0;right=0;" vertex="1" parent="Ov64XI55rNk1e-eB7lrl-55">
          <mxGeometry width="30" height="30" as="geometry">
            <mxRectangle width="30" height="30" as="alternateBounds" />
          </mxGeometry>
        </mxCell>
        <mxCell id="Ov64XI55rNk1e-eB7lrl-57" value="FOREIGN KEY (advertisement_id) REFERENCES advertisement(id) ON DELETE CASCADE" style="shape=partialRectangle;overflow=hidden;connectable=0;fillColor=none;align=left;strokeColor=inherit;top=0;left=0;bottom=0;right=0;spacingLeft=6;" vertex="1" parent="Ov64XI55rNk1e-eB7lrl-55">
          <mxGeometry x="30" width="520" height="30" as="geometry">
            <mxRectangle width="520" height="30" as="alternateBounds" />
          </mxGeometry>
        </mxCell>
        <mxCell id="Ov64XI55rNk1e-eB7lrl-58" value="image" style="shape=table;startSize=30;container=1;collapsible=1;childLayout=tableLayout;fixedRows=1;rowLines=0;fontStyle=1;align=center;resizeLast=1;" vertex="1" parent="1">
          <mxGeometry x="-510" y="119" width="560" height="150" as="geometry" />
        </mxCell>
        <mxCell id="Ov64XI55rNk1e-eB7lrl-59" value="" style="shape=tableRow;horizontal=0;startSize=0;swimlaneHead=0;swimlaneBody=0;fillColor=none;collapsible=0;dropTarget=0;points=[[0,0.5],[1,0.5]];portConstraint=eastwest;strokeColor=inherit;top=0;left=0;right=0;bottom=1;" vertex="1" parent="Ov64XI55rNk1e-eB7lrl-58">
          <mxGeometry y="30" width="560" height="30" as="geometry" />
        </mxCell>
        <mxCell id="Ov64XI55rNk1e-eB7lrl-60" value="PK" style="shape=partialRectangle;overflow=hidden;connectable=0;fillColor=none;strokeColor=inherit;top=0;left=0;bottom=0;right=0;fontStyle=1;" vertex="1" parent="Ov64XI55rNk1e-eB7lrl-59">
          <mxGeometry width="30" height="30" as="geometry">
            <mxRectangle width="30" height="30" as="alternateBounds" />
          </mxGeometry>
        </mxCell>
        <mxCell id="Ov64XI55rNk1e-eB7lrl-61" value="id INT AUTO_INCREMENT " style="shape=partialRectangle;overflow=hidden;connectable=0;fillColor=none;align=left;strokeColor=inherit;top=0;left=0;bottom=0;right=0;spacingLeft=6;fontStyle=5;" vertex="1" parent="Ov64XI55rNk1e-eB7lrl-59">
          <mxGeometry x="30" width="530" height="30" as="geometry">
            <mxRectangle width="530" height="30" as="alternateBounds" />
          </mxGeometry>
        </mxCell>
        <mxCell id="Ov64XI55rNk1e-eB7lrl-62" value="" style="shape=tableRow;horizontal=0;startSize=0;swimlaneHead=0;swimlaneBody=0;fillColor=none;collapsible=0;dropTarget=0;points=[[0,0.5],[1,0.5]];portConstraint=eastwest;strokeColor=inherit;top=0;left=0;right=0;bottom=0;" vertex="1" parent="Ov64XI55rNk1e-eB7lrl-58">
          <mxGeometry y="60" width="560" height="30" as="geometry" />
        </mxCell>
        <mxCell id="Ov64XI55rNk1e-eB7lrl-63" value="" style="shape=partialRectangle;overflow=hidden;connectable=0;fillColor=none;strokeColor=inherit;top=0;left=0;bottom=0;right=0;" vertex="1" parent="Ov64XI55rNk1e-eB7lrl-62">
          <mxGeometry width="30" height="30" as="geometry">
            <mxRectangle width="30" height="30" as="alternateBounds" />
          </mxGeometry>
        </mxCell>
        <mxCell id="Ov64XI55rNk1e-eB7lrl-64" value="advertisement_id INT NOT NULL" style="shape=partialRectangle;overflow=hidden;connectable=0;fillColor=none;align=left;strokeColor=inherit;top=0;left=0;bottom=0;right=0;spacingLeft=6;" vertex="1" parent="Ov64XI55rNk1e-eB7lrl-62">
          <mxGeometry x="30" width="530" height="30" as="geometry">
            <mxRectangle width="530" height="30" as="alternateBounds" />
          </mxGeometry>
        </mxCell>
        <mxCell id="Ov64XI55rNk1e-eB7lrl-65" value="" style="shape=tableRow;horizontal=0;startSize=0;swimlaneHead=0;swimlaneBody=0;fillColor=none;collapsible=0;dropTarget=0;points=[[0,0.5],[1,0.5]];portConstraint=eastwest;strokeColor=inherit;top=0;left=0;right=0;bottom=0;" vertex="1" parent="Ov64XI55rNk1e-eB7lrl-58">
          <mxGeometry y="90" width="560" height="30" as="geometry" />
        </mxCell>
        <mxCell id="Ov64XI55rNk1e-eB7lrl-66" value="" style="shape=partialRectangle;overflow=hidden;connectable=0;fillColor=none;strokeColor=inherit;top=0;left=0;bottom=0;right=0;" vertex="1" parent="Ov64XI55rNk1e-eB7lrl-65">
          <mxGeometry width="30" height="30" as="geometry">
            <mxRectangle width="30" height="30" as="alternateBounds" />
          </mxGeometry>
        </mxCell>
        <mxCell id="Ov64XI55rNk1e-eB7lrl-67" value="image_url VARCHAR(255) NOT NULL" style="shape=partialRectangle;overflow=hidden;connectable=0;fillColor=none;align=left;strokeColor=inherit;top=0;left=0;bottom=0;right=0;spacingLeft=6;" vertex="1" parent="Ov64XI55rNk1e-eB7lrl-65">
          <mxGeometry x="30" width="530" height="30" as="geometry">
            <mxRectangle width="530" height="30" as="alternateBounds" />
          </mxGeometry>
        </mxCell>
        <mxCell id="Ov64XI55rNk1e-eB7lrl-68" value="" style="shape=tableRow;horizontal=0;startSize=0;swimlaneHead=0;swimlaneBody=0;fillColor=none;collapsible=0;dropTarget=0;points=[[0,0.5],[1,0.5]];portConstraint=eastwest;strokeColor=inherit;top=0;left=0;right=0;bottom=0;" vertex="1" parent="Ov64XI55rNk1e-eB7lrl-58">
          <mxGeometry y="120" width="560" height="30" as="geometry" />
        </mxCell>
        <mxCell id="Ov64XI55rNk1e-eB7lrl-69" value="" style="shape=partialRectangle;overflow=hidden;connectable=0;fillColor=none;strokeColor=inherit;top=0;left=0;bottom=0;right=0;" vertex="1" parent="Ov64XI55rNk1e-eB7lrl-68">
          <mxGeometry width="30" height="30" as="geometry">
            <mxRectangle width="30" height="30" as="alternateBounds" />
          </mxGeometry>
        </mxCell>
        <mxCell id="Ov64XI55rNk1e-eB7lrl-70" value="FOREIGN KEY (advertisement_id) REFERENCES advertisement(id) ON DELETE CASCADE" style="shape=partialRectangle;overflow=hidden;connectable=0;fillColor=none;align=left;strokeColor=inherit;top=0;left=0;bottom=0;right=0;spacingLeft=6;" vertex="1" parent="Ov64XI55rNk1e-eB7lrl-68">
          <mxGeometry x="30" width="530" height="30" as="geometry">
            <mxRectangle width="530" height="30" as="alternateBounds" />
          </mxGeometry>
        </mxCell>
        <mxCell id="Ov64XI55rNk1e-eB7lrl-71" value="review" style="shape=table;startSize=30;container=1;collapsible=1;childLayout=tableLayout;fixedRows=1;rowLines=0;fontStyle=1;align=center;resizeLast=1;" vertex="1" parent="1">
          <mxGeometry x="-2320" y="119" width="480" height="270" as="geometry" />
        </mxCell>
        <mxCell id="Ov64XI55rNk1e-eB7lrl-72" value="" style="shape=tableRow;horizontal=0;startSize=0;swimlaneHead=0;swimlaneBody=0;fillColor=none;collapsible=0;dropTarget=0;points=[[0,0.5],[1,0.5]];portConstraint=eastwest;strokeColor=inherit;top=0;left=0;right=0;bottom=1;" vertex="1" parent="Ov64XI55rNk1e-eB7lrl-71">
          <mxGeometry y="30" width="480" height="30" as="geometry" />
        </mxCell>
        <mxCell id="Ov64XI55rNk1e-eB7lrl-73" value="PK" style="shape=partialRectangle;overflow=hidden;connectable=0;fillColor=none;strokeColor=inherit;top=0;left=0;bottom=0;right=0;fontStyle=1;" vertex="1" parent="Ov64XI55rNk1e-eB7lrl-72">
          <mxGeometry width="30" height="30" as="geometry">
            <mxRectangle width="30" height="30" as="alternateBounds" />
          </mxGeometry>
        </mxCell>
        <mxCell id="Ov64XI55rNk1e-eB7lrl-74" value="id INT AUTO_INCREMENT " style="shape=partialRectangle;overflow=hidden;connectable=0;fillColor=none;align=left;strokeColor=inherit;top=0;left=0;bottom=0;right=0;spacingLeft=6;fontStyle=5;" vertex="1" parent="Ov64XI55rNk1e-eB7lrl-72">
          <mxGeometry x="30" width="450" height="30" as="geometry">
            <mxRectangle width="450" height="30" as="alternateBounds" />
          </mxGeometry>
        </mxCell>
        <mxCell id="Ov64XI55rNk1e-eB7lrl-75" value="" style="shape=tableRow;horizontal=0;startSize=0;swimlaneHead=0;swimlaneBody=0;fillColor=none;collapsible=0;dropTarget=0;points=[[0,0.5],[1,0.5]];portConstraint=eastwest;strokeColor=inherit;top=0;left=0;right=0;bottom=0;" vertex="1" parent="Ov64XI55rNk1e-eB7lrl-71">
          <mxGeometry y="60" width="480" height="30" as="geometry" />
        </mxCell>
        <mxCell id="Ov64XI55rNk1e-eB7lrl-76" value="" style="shape=partialRectangle;overflow=hidden;connectable=0;fillColor=none;strokeColor=inherit;top=0;left=0;bottom=0;right=0;" vertex="1" parent="Ov64XI55rNk1e-eB7lrl-75">
          <mxGeometry width="30" height="30" as="geometry">
            <mxRectangle width="30" height="30" as="alternateBounds" />
          </mxGeometry>
        </mxCell>
        <mxCell id="Ov64XI55rNk1e-eB7lrl-77" value="reviewer_id INT NOT NULL" style="shape=partialRectangle;overflow=hidden;connectable=0;fillColor=none;align=left;strokeColor=inherit;top=0;left=0;bottom=0;right=0;spacingLeft=6;" vertex="1" parent="Ov64XI55rNk1e-eB7lrl-75">
          <mxGeometry x="30" width="450" height="30" as="geometry">
            <mxRectangle width="450" height="30" as="alternateBounds" />
          </mxGeometry>
        </mxCell>
        <mxCell id="Ov64XI55rNk1e-eB7lrl-78" value="" style="shape=tableRow;horizontal=0;startSize=0;swimlaneHead=0;swimlaneBody=0;fillColor=none;collapsible=0;dropTarget=0;points=[[0,0.5],[1,0.5]];portConstraint=eastwest;strokeColor=inherit;top=0;left=0;right=0;bottom=0;" vertex="1" parent="Ov64XI55rNk1e-eB7lrl-71">
          <mxGeometry y="90" width="480" height="30" as="geometry" />
        </mxCell>
        <mxCell id="Ov64XI55rNk1e-eB7lrl-79" value="" style="shape=partialRectangle;overflow=hidden;connectable=0;fillColor=none;strokeColor=inherit;top=0;left=0;bottom=0;right=0;" vertex="1" parent="Ov64XI55rNk1e-eB7lrl-78">
          <mxGeometry width="30" height="30" as="geometry">
            <mxRectangle width="30" height="30" as="alternateBounds" />
          </mxGeometry>
        </mxCell>
        <mxCell id="Ov64XI55rNk1e-eB7lrl-80" value="reviewed_id INT NOT NULL" style="shape=partialRectangle;overflow=hidden;connectable=0;fillColor=none;align=left;strokeColor=inherit;top=0;left=0;bottom=0;right=0;spacingLeft=6;" vertex="1" parent="Ov64XI55rNk1e-eB7lrl-78">
          <mxGeometry x="30" width="450" height="30" as="geometry">
            <mxRectangle width="450" height="30" as="alternateBounds" />
          </mxGeometry>
        </mxCell>
        <mxCell id="Ov64XI55rNk1e-eB7lrl-81" value="" style="shape=tableRow;horizontal=0;startSize=0;swimlaneHead=0;swimlaneBody=0;fillColor=none;collapsible=0;dropTarget=0;points=[[0,0.5],[1,0.5]];portConstraint=eastwest;strokeColor=inherit;top=0;left=0;right=0;bottom=0;" vertex="1" parent="Ov64XI55rNk1e-eB7lrl-71">
          <mxGeometry y="120" width="480" height="30" as="geometry" />
        </mxCell>
        <mxCell id="Ov64XI55rNk1e-eB7lrl-82" value="" style="shape=partialRectangle;overflow=hidden;connectable=0;fillColor=none;strokeColor=inherit;top=0;left=0;bottom=0;right=0;" vertex="1" parent="Ov64XI55rNk1e-eB7lrl-81">
          <mxGeometry width="30" height="30" as="geometry">
            <mxRectangle width="30" height="30" as="alternateBounds" />
          </mxGeometry>
        </mxCell>
        <mxCell id="Ov64XI55rNk1e-eB7lrl-83" value="rating INT CHECK (rating BETWEEN 1 AND 5)" style="shape=partialRectangle;overflow=hidden;connectable=0;fillColor=none;align=left;strokeColor=inherit;top=0;left=0;bottom=0;right=0;spacingLeft=6;" vertex="1" parent="Ov64XI55rNk1e-eB7lrl-81">
          <mxGeometry x="30" width="450" height="30" as="geometry">
            <mxRectangle width="450" height="30" as="alternateBounds" />
          </mxGeometry>
        </mxCell>
        <mxCell id="Ov64XI55rNk1e-eB7lrl-84" value="" style="shape=tableRow;horizontal=0;startSize=0;swimlaneHead=0;swimlaneBody=0;fillColor=none;collapsible=0;dropTarget=0;points=[[0,0.5],[1,0.5]];portConstraint=eastwest;strokeColor=inherit;top=0;left=0;right=0;bottom=0;" vertex="1" parent="Ov64XI55rNk1e-eB7lrl-71">
          <mxGeometry y="150" width="480" height="30" as="geometry" />
        </mxCell>
        <mxCell id="Ov64XI55rNk1e-eB7lrl-85" value="" style="shape=partialRectangle;overflow=hidden;connectable=0;fillColor=none;strokeColor=inherit;top=0;left=0;bottom=0;right=0;" vertex="1" parent="Ov64XI55rNk1e-eB7lrl-84">
          <mxGeometry width="30" height="30" as="geometry">
            <mxRectangle width="30" height="30" as="alternateBounds" />
          </mxGeometry>
        </mxCell>
        <mxCell id="Ov64XI55rNk1e-eB7lrl-86" value="comment TEXT" style="shape=partialRectangle;overflow=hidden;connectable=0;fillColor=none;align=left;strokeColor=inherit;top=0;left=0;bottom=0;right=0;spacingLeft=6;" vertex="1" parent="Ov64XI55rNk1e-eB7lrl-84">
          <mxGeometry x="30" width="450" height="30" as="geometry">
            <mxRectangle width="450" height="30" as="alternateBounds" />
          </mxGeometry>
        </mxCell>
        <mxCell id="Ov64XI55rNk1e-eB7lrl-87" value="" style="shape=tableRow;horizontal=0;startSize=0;swimlaneHead=0;swimlaneBody=0;fillColor=none;collapsible=0;dropTarget=0;points=[[0,0.5],[1,0.5]];portConstraint=eastwest;strokeColor=inherit;top=0;left=0;right=0;bottom=0;" vertex="1" parent="Ov64XI55rNk1e-eB7lrl-71">
          <mxGeometry y="180" width="480" height="30" as="geometry" />
        </mxCell>
        <mxCell id="Ov64XI55rNk1e-eB7lrl-88" value="" style="shape=partialRectangle;overflow=hidden;connectable=0;fillColor=none;strokeColor=inherit;top=0;left=0;bottom=0;right=0;" vertex="1" parent="Ov64XI55rNk1e-eB7lrl-87">
          <mxGeometry width="30" height="30" as="geometry">
            <mxRectangle width="30" height="30" as="alternateBounds" />
          </mxGeometry>
        </mxCell>
        <mxCell id="Ov64XI55rNk1e-eB7lrl-89" value="created_at TIMESTAMP DEFAULT CURRENT_TIMESTAMP" style="shape=partialRectangle;overflow=hidden;connectable=0;fillColor=none;align=left;strokeColor=inherit;top=0;left=0;bottom=0;right=0;spacingLeft=6;" vertex="1" parent="Ov64XI55rNk1e-eB7lrl-87">
          <mxGeometry x="30" width="450" height="30" as="geometry">
            <mxRectangle width="450" height="30" as="alternateBounds" />
          </mxGeometry>
        </mxCell>
        <mxCell id="Ov64XI55rNk1e-eB7lrl-90" value="" style="shape=tableRow;horizontal=0;startSize=0;swimlaneHead=0;swimlaneBody=0;fillColor=none;collapsible=0;dropTarget=0;points=[[0,0.5],[1,0.5]];portConstraint=eastwest;strokeColor=inherit;top=0;left=0;right=0;bottom=0;" vertex="1" parent="Ov64XI55rNk1e-eB7lrl-71">
          <mxGeometry y="210" width="480" height="30" as="geometry" />
        </mxCell>
        <mxCell id="Ov64XI55rNk1e-eB7lrl-91" value="" style="shape=partialRectangle;overflow=hidden;connectable=0;fillColor=none;strokeColor=inherit;top=0;left=0;bottom=0;right=0;" vertex="1" parent="Ov64XI55rNk1e-eB7lrl-90">
          <mxGeometry width="30" height="30" as="geometry">
            <mxRectangle width="30" height="30" as="alternateBounds" />
          </mxGeometry>
        </mxCell>
        <mxCell id="Ov64XI55rNk1e-eB7lrl-92" value="FOREIGN KEY (reviewer_id) REFERENCES users(id) ON DELETE CASCADE" style="shape=partialRectangle;overflow=hidden;connectable=0;fillColor=none;align=left;strokeColor=inherit;top=0;left=0;bottom=0;right=0;spacingLeft=6;" vertex="1" parent="Ov64XI55rNk1e-eB7lrl-90">
          <mxGeometry x="30" width="450" height="30" as="geometry">
            <mxRectangle width="450" height="30" as="alternateBounds" />
          </mxGeometry>
        </mxCell>
        <mxCell id="Ov64XI55rNk1e-eB7lrl-93" value="" style="shape=tableRow;horizontal=0;startSize=0;swimlaneHead=0;swimlaneBody=0;fillColor=none;collapsible=0;dropTarget=0;points=[[0,0.5],[1,0.5]];portConstraint=eastwest;strokeColor=inherit;top=0;left=0;right=0;bottom=0;" vertex="1" parent="Ov64XI55rNk1e-eB7lrl-71">
          <mxGeometry y="240" width="480" height="30" as="geometry" />
        </mxCell>
        <mxCell id="Ov64XI55rNk1e-eB7lrl-94" value="" style="shape=partialRectangle;overflow=hidden;connectable=0;fillColor=none;strokeColor=inherit;top=0;left=0;bottom=0;right=0;" vertex="1" parent="Ov64XI55rNk1e-eB7lrl-93">
          <mxGeometry width="30" height="30" as="geometry">
            <mxRectangle width="30" height="30" as="alternateBounds" />
          </mxGeometry>
        </mxCell>
        <mxCell id="Ov64XI55rNk1e-eB7lrl-95" value="FOREIGN KEY (reviewed_id) REFERENCES users(id) ON DELETE CASCADE" style="shape=partialRectangle;overflow=hidden;connectable=0;fillColor=none;align=left;strokeColor=inherit;top=0;left=0;bottom=0;right=0;spacingLeft=6;" vertex="1" parent="Ov64XI55rNk1e-eB7lrl-93">
          <mxGeometry x="30" width="450" height="30" as="geometry">
            <mxRectangle width="450" height="30" as="alternateBounds" />
          </mxGeometry>
        </mxCell>
        <mxCell id="Ov64XI55rNk1e-eB7lrl-96" value="users" style="shape=table;startSize=30;container=1;collapsible=1;childLayout=tableLayout;fixedRows=1;rowLines=0;fontStyle=1;align=center;resizeLast=1;" vertex="1" parent="1">
          <mxGeometry x="-1750" y="119" width="580" height="270" as="geometry" />
        </mxCell>
        <mxCell id="Ov64XI55rNk1e-eB7lrl-97" value="" style="shape=tableRow;horizontal=0;startSize=0;swimlaneHead=0;swimlaneBody=0;fillColor=none;collapsible=0;dropTarget=0;points=[[0,0.5],[1,0.5]];portConstraint=eastwest;strokeColor=inherit;top=0;left=0;right=0;bottom=1;" vertex="1" parent="Ov64XI55rNk1e-eB7lrl-96">
          <mxGeometry y="30" width="580" height="30" as="geometry" />
        </mxCell>
        <mxCell id="Ov64XI55rNk1e-eB7lrl-98" value="PK" style="shape=partialRectangle;overflow=hidden;connectable=0;fillColor=none;strokeColor=inherit;top=0;left=0;bottom=0;right=0;fontStyle=1;" vertex="1" parent="Ov64XI55rNk1e-eB7lrl-97">
          <mxGeometry width="30" height="30" as="geometry">
            <mxRectangle width="30" height="30" as="alternateBounds" />
          </mxGeometry>
        </mxCell>
        <mxCell id="Ov64XI55rNk1e-eB7lrl-99" value="id INT AUTO_INCREMENT " style="shape=partialRectangle;overflow=hidden;connectable=0;fillColor=none;align=left;strokeColor=inherit;top=0;left=0;bottom=0;right=0;spacingLeft=6;fontStyle=5;" vertex="1" parent="Ov64XI55rNk1e-eB7lrl-97">
          <mxGeometry x="30" width="550" height="30" as="geometry">
            <mxRectangle width="550" height="30" as="alternateBounds" />
          </mxGeometry>
        </mxCell>
        <mxCell id="Ov64XI55rNk1e-eB7lrl-100" value="" style="shape=tableRow;horizontal=0;startSize=0;swimlaneHead=0;swimlaneBody=0;fillColor=none;collapsible=0;dropTarget=0;points=[[0,0.5],[1,0.5]];portConstraint=eastwest;strokeColor=inherit;top=0;left=0;right=0;bottom=0;" vertex="1" parent="Ov64XI55rNk1e-eB7lrl-96">
          <mxGeometry y="60" width="580" height="30" as="geometry" />
        </mxCell>
        <mxCell id="Ov64XI55rNk1e-eB7lrl-101" value="" style="shape=partialRectangle;overflow=hidden;connectable=0;fillColor=none;strokeColor=inherit;top=0;left=0;bottom=0;right=0;" vertex="1" parent="Ov64XI55rNk1e-eB7lrl-100">
          <mxGeometry width="30" height="30" as="geometry">
            <mxRectangle width="30" height="30" as="alternateBounds" />
          </mxGeometry>
        </mxCell>
        <mxCell id="Ov64XI55rNk1e-eB7lrl-102" value="username VARCHAR(50) NOT NULL UNIQUE" style="shape=partialRectangle;overflow=hidden;connectable=0;fillColor=none;align=left;strokeColor=inherit;top=0;left=0;bottom=0;right=0;spacingLeft=6;" vertex="1" parent="Ov64XI55rNk1e-eB7lrl-100">
          <mxGeometry x="30" width="550" height="30" as="geometry">
            <mxRectangle width="550" height="30" as="alternateBounds" />
          </mxGeometry>
        </mxCell>
        <mxCell id="Ov64XI55rNk1e-eB7lrl-103" value="" style="shape=tableRow;horizontal=0;startSize=0;swimlaneHead=0;swimlaneBody=0;fillColor=none;collapsible=0;dropTarget=0;points=[[0,0.5],[1,0.5]];portConstraint=eastwest;strokeColor=inherit;top=0;left=0;right=0;bottom=0;" vertex="1" parent="Ov64XI55rNk1e-eB7lrl-96">
          <mxGeometry y="90" width="580" height="30" as="geometry" />
        </mxCell>
        <mxCell id="Ov64XI55rNk1e-eB7lrl-104" value="" style="shape=partialRectangle;overflow=hidden;connectable=0;fillColor=none;strokeColor=inherit;top=0;left=0;bottom=0;right=0;" vertex="1" parent="Ov64XI55rNk1e-eB7lrl-103">
          <mxGeometry width="30" height="30" as="geometry">
            <mxRectangle width="30" height="30" as="alternateBounds" />
          </mxGeometry>
        </mxCell>
        <mxCell id="Ov64XI55rNk1e-eB7lrl-105" value="email VARCHAR(100) NOT NULL UNIQUE" style="shape=partialRectangle;overflow=hidden;connectable=0;fillColor=none;align=left;strokeColor=inherit;top=0;left=0;bottom=0;right=0;spacingLeft=6;" vertex="1" parent="Ov64XI55rNk1e-eB7lrl-103">
          <mxGeometry x="30" width="550" height="30" as="geometry">
            <mxRectangle width="550" height="30" as="alternateBounds" />
          </mxGeometry>
        </mxCell>
        <mxCell id="Ov64XI55rNk1e-eB7lrl-106" value="" style="shape=tableRow;horizontal=0;startSize=0;swimlaneHead=0;swimlaneBody=0;fillColor=none;collapsible=0;dropTarget=0;points=[[0,0.5],[1,0.5]];portConstraint=eastwest;strokeColor=inherit;top=0;left=0;right=0;bottom=0;" vertex="1" parent="Ov64XI55rNk1e-eB7lrl-96">
          <mxGeometry y="120" width="580" height="30" as="geometry" />
        </mxCell>
        <mxCell id="Ov64XI55rNk1e-eB7lrl-107" value="" style="shape=partialRectangle;overflow=hidden;connectable=0;fillColor=none;strokeColor=inherit;top=0;left=0;bottom=0;right=0;" vertex="1" parent="Ov64XI55rNk1e-eB7lrl-106">
          <mxGeometry width="30" height="30" as="geometry">
            <mxRectangle width="30" height="30" as="alternateBounds" />
          </mxGeometry>
        </mxCell>
        <mxCell id="Ov64XI55rNk1e-eB7lrl-108" value="phone VARCHAR(20) NOT NULL UNIQUE" style="shape=partialRectangle;overflow=hidden;connectable=0;fillColor=none;align=left;strokeColor=inherit;top=0;left=0;bottom=0;right=0;spacingLeft=6;" vertex="1" parent="Ov64XI55rNk1e-eB7lrl-106">
          <mxGeometry x="30" width="550" height="30" as="geometry">
            <mxRectangle width="550" height="30" as="alternateBounds" />
          </mxGeometry>
        </mxCell>
        <mxCell id="Ov64XI55rNk1e-eB7lrl-109" value="" style="shape=tableRow;horizontal=0;startSize=0;swimlaneHead=0;swimlaneBody=0;fillColor=none;collapsible=0;dropTarget=0;points=[[0,0.5],[1,0.5]];portConstraint=eastwest;strokeColor=inherit;top=0;left=0;right=0;bottom=0;" vertex="1" parent="Ov64XI55rNk1e-eB7lrl-96">
          <mxGeometry y="150" width="580" height="30" as="geometry" />
        </mxCell>
        <mxCell id="Ov64XI55rNk1e-eB7lrl-110" value="" style="shape=partialRectangle;overflow=hidden;connectable=0;fillColor=none;strokeColor=inherit;top=0;left=0;bottom=0;right=0;" vertex="1" parent="Ov64XI55rNk1e-eB7lrl-109">
          <mxGeometry width="30" height="30" as="geometry">
            <mxRectangle width="30" height="30" as="alternateBounds" />
          </mxGeometry>
        </mxCell>
        <mxCell id="Ov64XI55rNk1e-eB7lrl-111" value="password_hash VARCHAR(255) NOT NULL" style="shape=partialRectangle;overflow=hidden;connectable=0;fillColor=none;align=left;strokeColor=inherit;top=0;left=0;bottom=0;right=0;spacingLeft=6;" vertex="1" parent="Ov64XI55rNk1e-eB7lrl-109">
          <mxGeometry x="30" width="550" height="30" as="geometry">
            <mxRectangle width="550" height="30" as="alternateBounds" />
          </mxGeometry>
        </mxCell>
        <mxCell id="Ov64XI55rNk1e-eB7lrl-112" value="" style="shape=tableRow;horizontal=0;startSize=0;swimlaneHead=0;swimlaneBody=0;fillColor=none;collapsible=0;dropTarget=0;points=[[0,0.5],[1,0.5]];portConstraint=eastwest;strokeColor=inherit;top=0;left=0;right=0;bottom=0;" vertex="1" parent="Ov64XI55rNk1e-eB7lrl-96">
          <mxGeometry y="180" width="580" height="30" as="geometry" />
        </mxCell>
        <mxCell id="Ov64XI55rNk1e-eB7lrl-113" value="" style="shape=partialRectangle;overflow=hidden;connectable=0;fillColor=none;strokeColor=inherit;top=0;left=0;bottom=0;right=0;" vertex="1" parent="Ov64XI55rNk1e-eB7lrl-112">
          <mxGeometry width="30" height="30" as="geometry">
            <mxRectangle width="30" height="30" as="alternateBounds" />
          </mxGeometry>
        </mxCell>
        <mxCell id="Ov64XI55rNk1e-eB7lrl-114" value="role ENUM(&#39;user&#39;, &#39;admin&#39;) DEFAULT &#39;user&#39;" style="shape=partialRectangle;overflow=hidden;connectable=0;fillColor=none;align=left;strokeColor=inherit;top=0;left=0;bottom=0;right=0;spacingLeft=6;" vertex="1" parent="Ov64XI55rNk1e-eB7lrl-112">
          <mxGeometry x="30" width="550" height="30" as="geometry">
            <mxRectangle width="550" height="30" as="alternateBounds" />
          </mxGeometry>
        </mxCell>
        <mxCell id="Ov64XI55rNk1e-eB7lrl-115" value="" style="shape=tableRow;horizontal=0;startSize=0;swimlaneHead=0;swimlaneBody=0;fillColor=none;collapsible=0;dropTarget=0;points=[[0,0.5],[1,0.5]];portConstraint=eastwest;strokeColor=inherit;top=0;left=0;right=0;bottom=0;" vertex="1" parent="Ov64XI55rNk1e-eB7lrl-96">
          <mxGeometry y="210" width="580" height="30" as="geometry" />
        </mxCell>
        <mxCell id="Ov64XI55rNk1e-eB7lrl-116" value="" style="shape=partialRectangle;overflow=hidden;connectable=0;fillColor=none;strokeColor=inherit;top=0;left=0;bottom=0;right=0;" vertex="1" parent="Ov64XI55rNk1e-eB7lrl-115">
          <mxGeometry width="30" height="30" as="geometry">
            <mxRectangle width="30" height="30" as="alternateBounds" />
          </mxGeometry>
        </mxCell>
        <mxCell id="Ov64XI55rNk1e-eB7lrl-117" value="created_at TIMESTAMP DEFAULT CURRENT_TIMESTAMP" style="shape=partialRectangle;overflow=hidden;connectable=0;fillColor=none;align=left;strokeColor=inherit;top=0;left=0;bottom=0;right=0;spacingLeft=6;" vertex="1" parent="Ov64XI55rNk1e-eB7lrl-115">
          <mxGeometry x="30" width="550" height="30" as="geometry">
            <mxRectangle width="550" height="30" as="alternateBounds" />
          </mxGeometry>
        </mxCell>
        <mxCell id="Ov64XI55rNk1e-eB7lrl-118" value="" style="shape=tableRow;horizontal=0;startSize=0;swimlaneHead=0;swimlaneBody=0;fillColor=none;collapsible=0;dropTarget=0;points=[[0,0.5],[1,0.5]];portConstraint=eastwest;strokeColor=inherit;top=0;left=0;right=0;bottom=0;" vertex="1" parent="Ov64XI55rNk1e-eB7lrl-96">
          <mxGeometry y="240" width="580" height="30" as="geometry" />
        </mxCell>
        <mxCell id="Ov64XI55rNk1e-eB7lrl-119" value="" style="shape=partialRectangle;overflow=hidden;connectable=0;fillColor=none;strokeColor=inherit;top=0;left=0;bottom=0;right=0;" vertex="1" parent="Ov64XI55rNk1e-eB7lrl-118">
          <mxGeometry width="30" height="30" as="geometry">
            <mxRectangle width="30" height="30" as="alternateBounds" />
          </mxGeometry>
        </mxCell>
        <mxCell id="Ov64XI55rNk1e-eB7lrl-120" value="last_login TIMESTAMP DEFAULT CURRENT_TIMESTAMP ON UPDATE CURRENT_TIMESTAMP" style="shape=partialRectangle;overflow=hidden;connectable=0;fillColor=none;align=left;strokeColor=inherit;top=0;left=0;bottom=0;right=0;spacingLeft=6;" vertex="1" parent="Ov64XI55rNk1e-eB7lrl-118">
          <mxGeometry x="30" width="550" height="30" as="geometry">
            <mxRectangle width="550" height="30" as="alternateBounds" />
          </mxGeometry>
        </mxCell>
        <mxCell id="Ov64XI55rNk1e-eB7lrl-122" value="" style="edgeStyle=entityRelationEdgeStyle;fontSize=12;html=1;endArrow=ERoneToMany;rounded=0;entryX=1;entryY=0.5;entryDx=0;entryDy=0;exitX=0;exitY=0.5;exitDx=0;exitDy=0;" edge="1" parent="1" source="Ov64XI55rNk1e-eB7lrl-106" target="Ov64XI55rNk1e-eB7lrl-81">
          <mxGeometry width="100" height="100" relative="1" as="geometry">
            <mxPoint x="-1810" y="389" as="sourcePoint" />
            <mxPoint x="-1210" y="449" as="targetPoint" />
          </mxGeometry>
        </mxCell>
        <mxCell id="Ov64XI55rNk1e-eB7lrl-124" value="" style="edgeStyle=entityRelationEdgeStyle;fontSize=12;html=1;endArrow=ERoneToMany;rounded=0;entryX=0;entryY=0.5;entryDx=0;entryDy=0;exitX=1;exitY=0.5;exitDx=0;exitDy=0;" edge="1" parent="1" source="Ov64XI55rNk1e-eB7lrl-109" target="Ov64XI55rNk1e-eB7lrl-14">
          <mxGeometry width="100" height="100" relative="1" as="geometry">
            <mxPoint x="-1220" y="499" as="sourcePoint" />
            <mxPoint x="-1120" y="399" as="targetPoint" />
          </mxGeometry>
        </mxCell>
        <mxCell id="Ov64XI55rNk1e-eB7lrl-125" value="" style="edgeStyle=entityRelationEdgeStyle;fontSize=12;html=1;endArrow=ERoneToMany;rounded=0;exitX=0;exitY=0.5;exitDx=0;exitDy=0;entryX=1;entryY=0.5;entryDx=0;entryDy=0;" edge="1" parent="1" source="Ov64XI55rNk1e-eB7lrl-23" target="Ov64XI55rNk1e-eB7lrl-49">
          <mxGeometry width="100" height="100" relative="1" as="geometry">
            <mxPoint x="-1220" y="499" as="sourcePoint" />
            <mxPoint x="-1130" y="639" as="targetPoint" />
          </mxGeometry>
        </mxCell>
        <mxCell id="Ov64XI55rNk1e-eB7lrl-126" value="" style="edgeStyle=entityRelationEdgeStyle;fontSize=12;html=1;endArrow=ERmany;rounded=0;entryX=0;entryY=0.5;entryDx=0;entryDy=0;exitX=1;exitY=0.5;exitDx=0;exitDy=0;" edge="1" parent="1" source="Ov64XI55rNk1e-eB7lrl-14" target="Ov64XI55rNk1e-eB7lrl-62">
          <mxGeometry width="100" height="100" relative="1" as="geometry">
            <mxPoint x="-770" y="459" as="sourcePoint" />
            <mxPoint x="-670" y="359" as="targetPoint" />
          </mxGeometry>
        </mxCell>
        <mxCell id="Ov64XI55rNk1e-eB7lrl-127" value="" style="edgeStyle=entityRelationEdgeStyle;fontSize=12;html=1;endArrow=ERoneToMany;rounded=0;entryX=1;entryY=0.5;entryDx=0;entryDy=0;exitX=0;exitY=0.5;exitDx=0;exitDy=0;" edge="1" parent="1" source="Ov64XI55rNk1e-eB7lrl-36" target="Ov64XI55rNk1e-eB7lrl-23">
          <mxGeometry width="100" height="100" relative="1" as="geometry">
            <mxPoint x="-770" y="459" as="sourcePoint" />
            <mxPoint x="-670" y="359" as="targetPoint" />
          </mxGeometry>
        </mxCell>
        <mxCell id="Ov64XI55rNk1e-eB7lrl-130" value="" style="edgeStyle=entityRelationEdgeStyle;fontSize=12;html=1;endArrow=ERoneToMany;rounded=0;entryX=0;entryY=0.5;entryDx=0;entryDy=0;exitX=0.199;exitY=1.039;exitDx=0;exitDy=0;exitPerimeter=0;" edge="1" parent="1">
          <mxGeometry width="100" height="100" relative="1" as="geometry">
            <mxPoint x="-1634.5799999999997" y="388.99999999999983" as="sourcePoint" />
            <mxPoint x="-1735" y="632.83" as="targetPoint" />
            <Array as="points">
              <mxPoint x="-2170" y="482.83000000000004" />
              <mxPoint x="-1820" y="437.83000000000004" />
              <mxPoint x="-1785" y="482.83000000000004" />
            </Array>
          </mxGeometry>
        </mxCell>
      </root>
    </mxGraphModel>
  </diagram>
</mxfile>
